<?xml version="1.0" encoding="UTF-8"?>
<svg width="16px" height="16px" viewBox="0 0 16 16" version="1.1" xmlns="http://www.w3.org/2000/svg" xmlns:xlink="http://www.w3.org/1999/xlink">
    <!-- Generator: sketchtool 61.2 (101010) - https://sketch.com -->
    <title>B09C2687-B996-4734-9D51-440C50CCBA34</title>
    <desc>Created with sketchtool.</desc>
    <g id="Page-1" stroke="none" stroke-width="1" fill="none" fill-rule="evenodd">
        <g id="1---0-Application-List---bottom-sheet" transform="translate(-312.000000, -38.000000)" fill="#C8C8C8">
            <g id="mobile/navigation/header/white/sub-page" transform="translate(0.000000, 24.000000)">
                <g id="mobile/search/active-mobile/search/inactive" transform="translate(16.000000, 4.000000)">
                    <g id="icon/search/small" transform="translate(296.000000, 10.000000)">
                        <g id="search" transform="translate(0.000000, 1.000000)">
                            <path d="M7.25,0 C10.7017797,0 13.5,2.79822031 13.5,6.25 C13.5,7.82986217 12.9138157,9.27281367 11.9470774,10.3732242 L14.7126011,13.0242717 C15.0787176,13.375401 15.0908672,13.9568436 14.7397379,14.3229602 C14.7308822,14.3321938 14.7218347,14.3412413 14.7126011,14.3500969 C14.326274,14.7206094 13.7165128,14.7206094 13.3301858,14.3500969 L10.470014,11.6077727 C9.5295797,12.1741878 8.42783861,12.5 7.25,12.5 C3.79822031,12.5 1,9.70177969 1,6.25 C1,2.79822031 3.79822031,0 7.25,0 Z M7.25,1.25 C4.48857625,1.25 2.25,3.48857625 2.25,6.25 C2.25,9.01142375 4.48857625,11.25 7.25,11.25 C10.0114237,11.25 12.25,9.01142375 12.25,6.25 C12.25,3.48857625 10.0114237,1.25 7.25,1.25 Z"></path>
                        </g>
                    </g>
                </g>
            </g>
        </g>
    </g>
</svg>